# xmcd
#
# Track frame offsets:
#	150
#	3357
#	18923
#	38743
#	53789
#	56102
#	76641
#	93079
#	110225
#	141857
#	146655
#	165230
#	186915
#	205055
#	226157
#	230004
#	252913
#	277831
#	293374
#
# Disc length: 4321 seconds
#
# Revision: 1
# Processed by: cddbd v1.5.2PL0 Copyright (c) Steve Scherf et al.
# Submitted via: audiograbber 1.83.01
#
DISCID=f310df13
DTITLE=Magda Piskorczyk - Magda Live
DYEAR=2008
DGENRE=Blues
TTITLE0=Powitanie
TTITLE1=Walking Blues
TTITLE2=Fever
TTITLE3=On The Hunt
TTITLE4=Crossroads Intro
TTITLE5=Crossroads
TTITLE6=Work Song
TTITLE7=Canned Heat
TTITLE8=Muddy Water Blues
TTITLE9=Kermit Blues Intro
TTITLE10=Hard To Get
TTITLE11=Hearts
TTITLE12=All Of Me
TTITLE13=Up Above My Head
TTITLE14=Jericho Intro
TTITLE15=Joshua Fit The Battle of Jericho
TTITLE16=Walk Over God's Heaven
TTITLE17=Pozegnanie
TTITLE18=Daten-CD
EXTD=Trat auf im Jazzclub Armer Konrad 24.09.2009
EXTT0=
EXTT1=
EXTT2=
EXTT3=
EXTT4=
EXTT5=
EXTT6=
EXTT7=
EXTT8=
EXTT9=
EXTT10=
EXTT11=
EXTT12=
EXTT13=
EXTT14=
EXTT15=
EXTT16=
EXTT17=
EXTT18=
PLAYORDER=
